<svg width="134" height="141" viewBox="0 0 134 141" fill="none" xmlns="http://www.w3.org/2000/svg">
<path d="M86.2429 19.7546H85.9014C77.6389 19.7546 69.4316 17.5482 62.2578 13.4489C61.7774 13.1743 61.1792 13.1804 60.7079 13.4704C54.0312 17.5792 46.3452 19.7546 38.5054 19.7546H32.7652L26.5952 44.1924C23.7921 55.2949 27.6769 67.0158 36.5564 74.2462C36.6789 74.346 36.8584 74.3313 36.9631 74.2128L57.6728 50.7836L53.6623 46.7731L69.2823 43.3958L65.0607 58.1715L61.4723 53.5277L45.8522 71.0475C42.5372 74.3625 42.7121 79.7887 46.2336 82.8834L46.6966 83.2902L61.3189 92.8992C61.4127 92.9608 61.5335 92.9635 61.6299 92.9059L69.824 88.0165C93.4268 73.9325 100.915 43.2436 86.4521 19.8712C86.4072 19.7987 86.3281 19.7546 86.2429 19.7546Z" fill="#240F43" stroke="white" stroke-width="3"/>
<path d="M30.4609 117.297V119.289H25.0469V132.93H22.9375V119.289H17.5234V117.297H30.4609ZM35.0547 121.281V123.625C35.5078 122.844 36.0547 122.219 36.6953 121.75C37.3359 121.281 37.9922 121.047 38.6641 121.047C39.1172 121.047 39.5234 121.125 39.8828 121.281V123.508C39.3828 123.211 38.8828 123.062 38.3828 123.062C37.5859 123.062 36.9375 123.344 36.4375 123.906C35.9531 124.469 35.4922 125.141 35.0547 125.922V133H33.1328V121.281H35.0547ZM51.9297 121.281V128.219C51.9297 129.25 51.7109 130.141 51.2734 130.891C50.8359 131.641 50.2422 132.219 49.4922 132.625C48.7422 133.031 47.8984 133.234 46.9609 133.234C46.0234 133.234 45.1797 133.031 44.4297 132.625C43.6797 132.219 43.0859 131.641 42.6484 130.891C42.2109 130.141 41.9922 129.25 41.9922 128.219V121.281H43.9844V128.219C43.9844 129.234 44.2812 130.016 44.875 130.562C45.4844 131.094 46.1797 131.359 46.9609 131.359C47.7422 131.359 48.4297 131.094 49.0234 130.562C49.6328 130.016 49.9375 129.234 49.9375 128.219V121.281H51.9297ZM59.0547 121.047C59.7422 121.047 60.3828 121.148 60.9766 121.352C61.5703 121.539 62 121.734 62.2656 121.938V124C61.9375 123.75 61.4922 123.508 60.9297 123.273C60.3672 123.039 59.7891 122.922 59.1953 122.922C58.4609 122.922 57.9062 123.094 57.5312 123.438C57.1719 123.781 56.9922 124.141 56.9922 124.516C56.9922 124.812 57.0938 125.117 57.2969 125.43C57.5156 125.727 57.8906 125.969 58.4219 126.156L60.3906 126.859C61.1562 127.125 61.7266 127.508 62.1016 128.008C62.4766 128.508 62.6641 129.094 62.6641 129.766C62.6641 130.422 62.4766 131.023 62.1016 131.57C61.7422 132.117 61.2344 132.555 60.5781 132.883C59.9375 133.195 59.1953 133.352 58.3516 133.352C57.8984 133.352 57.4219 133.289 56.9219 133.164C56.4375 133.055 56 132.922 55.6094 132.766C55.2188 132.594 54.9297 132.445 54.7422 132.32V130.258C54.9609 130.414 55.2656 130.594 55.6562 130.797C56.0625 130.984 56.4922 131.148 56.9453 131.289C57.3984 131.414 57.8203 131.477 58.2109 131.477C58.9453 131.477 59.5234 131.312 59.9453 130.984C60.3828 130.656 60.6016 130.25 60.6016 129.766C60.6016 129.391 60.4531 129.094 60.1562 128.875C59.875 128.656 59.4609 128.445 58.9141 128.242L57.1797 127.609C56.2734 127.266 55.6719 126.836 55.375 126.32C55.0781 125.789 54.9297 125.188 54.9297 124.516C54.9297 123.516 55.3047 122.688 56.0547 122.031C56.8047 121.375 57.8047 121.047 59.0547 121.047ZM68.8281 117.906V121.281H72.25V123.086H68.8281V129.953C68.8281 130.438 68.9531 130.82 69.2031 131.102C69.4531 131.383 69.8359 131.523 70.3516 131.523C70.8203 131.523 71.2109 131.469 71.5234 131.359C71.8359 131.234 72.1094 131.102 72.3438 130.961V132.531C72.0312 132.781 71.6953 132.977 71.3359 133.117C70.9922 133.273 70.5234 133.352 69.9297 133.352C68.9297 133.352 68.1719 133.055 67.6562 132.461C67.1562 131.852 66.9062 131.047 66.9062 130.047V123.086H64.6562V122.523C65.4219 122.18 66.0625 121.617 66.5781 120.836C67.0938 120.039 67.5469 119.062 67.9375 117.906H68.8281ZM82.5859 117.297C83.4922 117.297 84.3594 117.508 85.1875 117.93C86.0156 118.336 86.6953 118.93 87.2266 119.711C87.7734 120.477 88.0469 121.398 88.0469 122.477C88.0469 123.398 87.7891 124.25 87.2734 125.031C86.7578 125.812 86.0547 126.445 85.1641 126.93C84.2891 127.398 83.3125 127.633 82.2344 127.633C81.4375 127.633 80.7031 127.555 80.0312 127.398C79.375 127.227 78.8438 127.047 78.4375 126.859V133H76.3281V117.297H82.5859ZM78.4375 119.289V124.938C78.8594 125.109 79.4062 125.273 80.0781 125.43C80.7656 125.57 81.4609 125.641 82.1641 125.641C83.3516 125.641 84.2656 125.336 84.9062 124.727C85.5625 124.102 85.8906 123.352 85.8906 122.477C85.8906 121.805 85.7031 121.234 85.3281 120.766C84.9688 120.297 84.4922 119.938 83.8984 119.688C83.3047 119.422 82.6719 119.289 82 119.289H78.4375ZM96.0391 121.047C96.7109 121.047 97.3906 121.211 98.0781 121.539C98.7812 121.852 99.3828 122.289 99.8828 122.852V121.281H101.805V133H99.8828V131.008C99.4766 131.633 98.9219 132.18 98.2188 132.648C97.5312 133.117 96.7422 133.352 95.8516 133.352C94.8516 133.352 93.9375 133.102 93.1094 132.602C92.2812 132.086 91.6172 131.375 91.1172 130.469C90.6328 129.562 90.3906 128.516 90.3906 127.328C90.3906 126.031 90.6328 124.914 91.1172 123.977C91.6172 123.039 92.2969 122.32 93.1562 121.82C94.0156 121.305 94.9766 121.047 96.0391 121.047ZM96.3906 122.922C95.5469 122.922 94.8281 123.133 94.2344 123.555C93.6406 123.977 93.1797 124.523 92.8516 125.195C92.5391 125.852 92.3828 126.562 92.3828 127.328C92.3828 128.078 92.5391 128.773 92.8516 129.414C93.1641 130.039 93.6016 130.539 94.1641 130.914C94.7422 131.289 95.4062 131.477 96.1562 131.477C96.875 131.477 97.5156 131.289 98.0781 130.914C98.6406 130.539 99.0859 130.023 99.4141 129.367C99.7422 128.695 99.8984 127.945 99.8828 127.117L99.8594 124.867C99.375 124.258 98.8516 123.781 98.2891 123.438C97.7422 123.094 97.1094 122.922 96.3906 122.922ZM106.445 121.281L110.547 129.906L114.531 121.281H116.828L108.203 138.625H105.977L109.328 132.297L104.148 121.281H106.445Z" fill="#7155A9"/>
</svg>
